# xmcd CD database file
#
# Track frame offsets:
#	150
#	7407
#	28077
#	45315
#	64070
#	82975
#	108285
#	126325
#	138605
#	159952
#	181080
#
# Disc length: 2657 seconds
#
# Revision: 0
# Processed by: cddbd v1.5.1PL0 Copyright (c) Steve Scherf et al.
# Submitted via: CDex 1.51
#
DISCID=8b0a5f0b
DTITLE=Various Artist - GRAND FINALE at SHIBYA-Kokaido CD-1
DYEAR=1995
DGENRE=Anime
TTITLE0=ハミングバード/1995.8.16 Opening
TTITLE1=ハミングバード/せつない思い
TTITLE2=ハミングバード/RAINBOW FORCES
TTITLE3=ハミングバード/A master of ceremony<1>
TTITLE4=ハミングバード/やっぱり大好き
TTITLE5=ハミングバード/情熱
TTITLE6=草地章江/MY BLUE PARADISE
TTITLE7=ハミングバード/A master of ceremony<2>
TTITLE8=草地章江/ロマンスに秒読み
TTITLE9=玉川紗己子&天野由梨(天玉セット)/”天玉セットメドレー”　だからKISS AGAIN〜いい娘ではいられない〜あなたの海へつれてって〜いい娘ではいられない
TTITLE10=ハミングバード/A master of ceremony<3>
EXTD=YEAR: 1995
EXTT0=
EXTT1=
EXTT2=
EXTT3=
EXTT4=
EXTT5=
EXTT6=
EXTT7=
EXTT8=
EXTT9=
EXTT10=
PLAYORDER=
